<?xml version="1.0" standalone="no"?>
<!DOCTYPE svg PUBLIC "-//W3C//DTD SVG 20010904//EN"
 "http://www.w3.org/TR/2001/REC-SVG-20010904/DTD/svg10.dtd">
<svg version="1.0" xmlns="http://www.w3.org/2000/svg"
 width="413.000000pt" height="162.000000pt" viewBox="0 0 413.000000 162.000000"
 preserveAspectRatio="xMidYMid meet">

<g transform="translate(0.000000,162.000000) scale(0.100000,-0.100000)"
fill="#000000" stroke="none">
<path d="M2040 1568 c0 -7 -16 -36 -36 -65 -20 -28 -34 -59 -32 -68 5 -25 22
-18 30 13 4 15 19 39 33 52 25 23 36 80 15 80 -5 0 -10 -6 -10 -12z"/>
<path d="M2128 1556 c-7 -13 -21 -38 -31 -56 -13 -23 -16 -35 -8 -43 7 -7 12
-5 17 9 4 10 15 28 25 39 21 24 36 75 21 75 -6 0 -17 -11 -24 -24z"/>
<path d="M1914 1366 c-10 -26 16 -84 51 -115 61 -53 139 -53 201 1 26 23 38
28 47 19 16 -16 63 -14 81 5 9 8 16 29 16 44 0 51 -25 57 -218 59 -146 2 -173
0 -178 -13z m276 -32 c0 -9 -17 -34 -39 -55 -34 -34 -44 -39 -86 -39 -42 0
-52 5 -86 39 -66 65 -59 71 86 71 108 0 125 -2 125 -16z m88 4 c16 -16 15 -23
-4 -42 -12 -12 -20 -13 -35 -6 -19 10 -26 40 -12 53 10 11 38 8 51 -5z"/>
<path d="M300 775 l0 -595 1800 0 1800 0 0 595 0 595 -665 0 c-658 0 -665 0
-665 -20 0 -20 7 -20 640 -20 l640 0 0 -555 0 -555 -1750 0 -1750 0 0 555 0
555 640 0 c633 0 640 0 640 20 0 20 -7 20 -665 20 l-665 0 0 -595z"/>
<path d="M1910 1160 c0 -6 58 -10 155 -10 97 0 155 4 155 10 0 6 -58 10 -155
10 -97 0 -155 -4 -155 -10z"/>
<path d="M2832 890 c-109 -66 -65 -270 58 -270 91 0 148 115 106 215 -16 39
-68 75 -106 75 -14 0 -40 -9 -58 -20z m117 -46 c15 -20 21 -41 21 -81 0 -47
-4 -59 -29 -84 -16 -16 -39 -29 -51 -29 -12 0 -35 13 -51 29 -25 25 -29 37
-29 84 0 73 26 107 80 107 30 0 43 -6 59 -26z"/>
<path d="M3191 893 c-118 -62 -79 -273 50 -273 21 0 50 5 64 12 23 10 25 17
25 70 l0 58 -45 0 c-25 0 -45 -4 -45 -10 0 -5 14 -10 30 -10 28 0 30 -2 30
-39 0 -35 -3 -40 -28 -46 -67 -14 -112 31 -112 113 0 69 29 102 89 102 22 0
43 -4 46 -10 9 -15 25 -12 25 4 0 39 -78 56 -129 29z"/>
<path d="M1010 791 c0 -86 -3 -113 -16 -125 -19 -20 -34 -20 -62 0 -33 23 -48
7 -21 -22 24 -25 66 -31 99 -14 28 15 40 65 40 171 0 92 -1 99 -20 99 -19 0
-20 -7 -20 -109z"/>
<path d="M1197 763 c-26 -75 -45 -138 -43 -141 13 -13 36 11 46 47 l11 41 53
0 53 0 13 -45 c9 -34 17 -45 32 -45 12 0 18 5 15 13 -2 6 -24 69 -48 139 -60
175 -68 174 -132 -9z m103 -20 c0 -8 -14 -13 -35 -13 -41 0 -43 8 -18 88 l17
55 18 -59 c10 -33 18 -65 18 -71z"/>
<path d="M1443 893 c3 -5 23 -68 46 -140 61 -194 65 -191 166 135 3 6 -4 12
-14 12 -14 0 -25 -23 -51 -115 -19 -63 -37 -115 -40 -115 -3 0 -12 21 -18 48
-39 146 -54 182 -74 182 -10 0 -17 -3 -15 -7z"/>
<path d="M1768 760 c-41 -124 -44 -140 -28 -140 12 0 21 13 30 45 l13 45 53 0
53 0 11 -41 c10 -35 33 -60 45 -47 3 2 -16 66 -41 141 -40 120 -48 137 -68
137 -19 0 -27 -17 -68 -140z m90 42 c11 -33 17 -64 14 -67 -10 -9 -72 -5 -72
5 0 16 33 130 36 127 2 -2 12 -31 22 -65z"/>
<path d="M2210 760 l0 -140 48 0 c64 0 120 17 132 40 18 33 12 77 -14 97 -23
19 -23 19 -5 42 25 31 24 47 -6 76 -21 22 -33 25 -90 25 l-65 0 0 -140z m128
98 c7 -7 12 -22 12 -35 0 -26 -32 -43 -81 -43 -28 0 -29 2 -29 45 l0 45 43 0
c24 0 48 -5 55 -12z m19 -121 c22 -22 9 -65 -23 -77 -14 -6 -41 -10 -60 -10
l-34 0 0 56 0 57 51 -5 c28 -3 57 -12 66 -21z"/>
<path d="M2522 763 l3 -138 78 -3 c72 -3 77 -1 77 18 0 18 -6 20 -60 20 l-60
0 0 120 c0 114 -1 120 -20 120 -20 0 -20 -5 -18 -137z"/>
</g>
</svg>
